<?xml version="1.0" encoding="utf-8"?>
<!-- Generator: Adobe Illustrator 18.1.0, SVG Export Plug-In . SVG Version: 6.00 Build 0)  -->
<!DOCTYPE svg PUBLIC "-//W3C//DTD SVG 1.1//EN" "http://www.w3.org/Graphics/SVG/1.1/DTD/svg11.dtd">
<svg version="1.1" id="Layer_1" xmlns="http://www.w3.org/2000/svg" xmlns:xlink="http://www.w3.org/1999/xlink" x="0px" y="0px"
	 viewBox="0 0 398.8 363.2" enable-background="new 0 0 398.8 363.2" xml:space="preserve">
<g>
	<path d="M320.5,229.5c-16.9,60.6-64.9,104.2-121.4,104.2c-56.6,0-104.6-43.7-121.4-104.2H7
		c23.1,77.1,100.4,133.7,192.4,133.7c91.9,0,169.3-56.7,192.4-133.7H320.5z"/>
	<path d="M398.3,193.5c0.3-3.9,0.4-7.9,0.4-11.9C398.8,81.3,309.5,0,199.4,0C89.3,0,0,81.3,0,181.6
		c0,4,0.2,7.9,0.4,11.9H398.3z M199.1,29.5c67.8,0,123.2,63,127.6,142H71.5C75.8,92.5,131.3,29.5,199.1,29.5z"/>
</g>
</svg>
