<?xml version="1.0" encoding="utf-8"?>
<!-- Generator: Adobe Illustrator 18.1.0, SVG Export Plug-In . SVG Version: 6.00 Build 0)  -->
<!DOCTYPE svg PUBLIC "-//W3C//DTD SVG 1.1//EN" "http://www.w3.org/Graphics/SVG/1.1/DTD/svg11.dtd">
<svg version="1.1" id="Layer_1" xmlns="http://www.w3.org/2000/svg" xmlns:xlink="http://www.w3.org/1999/xlink" x="0px" y="0px"
	 viewBox="0 0 136 153.9" enable-background="new 0 0 136 153.9" xml:space="preserve">
<path fill="#FFFFFF" d="M38.1,124.9c7.7-7.4,14.3-19,20.5-30.9l0.7-1.4c1.7-3.3,2.5-4.6,4.1-8.1c9.7,8.5,7.1,19.7,6.2,32.3
	c-1.1,16.7,7.2,31.3,22.7,36.3c9.3,3,14.2-3,14.2-3c2.1-2.8,3.4-6.6,3.7-9.4c0.5-4-1.2-7-4.6-7.9c-0.9-0.2-1.8-0.4-2.6-0.4
	c-1.3,0-2.3,0.3-3.4,0.5c-1.2,0.3-2.5,0.6-4.8,0.7c-0.1,0-0.2,0-0.4,0c-5.3,0-7.5-2-9-4.1c-2.9-3.9-1.5-12,1.1-20.7
	c3.5-11.6,7.5-24.6,1.9-34.3c5.2-2.6,8-5.4,10.8-8.1c1-1,1.9-1.9,2.9-2.7c9.2-7.9,13.3-17.1,18.1-27.6c3.4-7.6,7.3-15.8,14.1-26
	c0,0,3.2-4.9,1.2-8.6c-0.7-1.3-1.9-1.8-3.8-1.6c-0.2,0-0.4,0-0.8,0c-6.7,0-17.6,2.8-20,7.5c-1.3,2.5-2.5,6.2-4,11.3
	c-2.5,8.9-6.4,22.4-13.5,33.6c-6.4,10-14.2,16.1-23.7,18.7c6.9-16.6,11.9-32.5,13.5-43c0.5-3.8-0.2-9.8-4-14.7
	c-3.3-4.1-8.2-6.6-14.1-7.1c-1.3-0.1-2.9,0-3.8,0.3c-6,1.9-16.6,5.8-26.7,10.6C21.1,23.7,12.5,29.7,8.6,35.3
	c-7.9,12.4-1,21.1,4.6,28c5.3,6.6,8.8,11,3.4,18.1c-1.5,1.9-1.5,4.4,0,6c0.4,0.4,0.8,0.8,1.3,1c0.3,0.2,1.5,0.7,2.8,0.4
	c1.9-0.4,2.8-1.6,3.2-2.2c0.1-0.1,0.2-0.3,0.3-0.4c1.8-1.9,2.9-2.9,4.1-3.9c0.9-0.8,1.8-1.6,3.1-2.8c6.3-6.4,9-11.6,8.8-16.3
	c-0.3-4.6-3.2-7.7-6.1-10.7c-4.4-4.6-8.5-9-5.1-19.6c1.6-4.9,12.7-9.7,17.8-11.8c1.1-0.5,2.4-1,3-1.3c1.9-0.8,5-2.1,7.2-1.1
	c6.9,3.2-0.8,26.3-2.9,35c-2.7,11-10.6,36-18.1,51.4c-5.7,11.8-11.7,16.5-11.7,16.5c-0.2,0.5-0.9,0.4-1.1-0.1
	c-0.8-3.2-3.1-7.9-11.2-7.9c-6.4,0-11.8,4.3-12.1,10.2c-0.3,8.8,7.3,14.5,14.8,14.1C23.9,137.7,32.7,130,38.1,124.9z"/>
</svg>
