<?xml version="1.0" encoding="utf-8"?>
<!-- Generator: Adobe Illustrator 18.1.0, SVG Export Plug-In . SVG Version: 6.00 Build 0)  -->
<svg version="1.1" style="display: none">
	<symbol id="svg-logo-k" viewBox="0 0 136 153.9">
		<path fill="#FFFFFF" d="M38.1,124.9c7.7-7.4,14.3-19,20.5-30.9l0.7-1.4c1.7-3.3,2.5-4.6,4.1-8.1c9.7,8.5,7.1,19.7,6.2,32.3
			c-1.1,16.7,7.2,31.3,22.7,36.3c9.3,3,14.2-3,14.2-3c2.1-2.8,3.4-6.6,3.7-9.4c0.5-4-1.2-7-4.6-7.9c-0.9-0.2-1.8-0.4-2.6-0.4
			c-1.3,0-2.3,0.3-3.4,0.5c-1.2,0.3-2.5,0.6-4.8,0.7c-0.1,0-0.2,0-0.4,0c-5.3,0-7.5-2-9-4.1c-2.9-3.9-1.5-12,1.1-20.7
			c3.5-11.6,7.5-24.6,1.9-34.3c5.2-2.6,8-5.4,10.8-8.1c1-1,1.9-1.9,2.9-2.7c9.2-7.9,13.3-17.1,18.1-27.6c3.4-7.6,7.3-15.8,14.1-26
			c0,0,3.2-4.9,1.2-8.6c-0.7-1.3-1.9-1.8-3.8-1.6c-0.2,0-0.4,0-0.8,0c-6.7,0-17.6,2.8-20,7.5c-1.3,2.5-2.5,6.2-4,11.3
			c-2.5,8.9-6.4,22.4-13.5,33.6c-6.4,10-14.2,16.1-23.7,18.7c6.9-16.6,11.9-32.5,13.5-43c0.5-3.8-0.2-9.8-4-14.7
			c-3.3-4.1-8.2-6.6-14.1-7.1c-1.3-0.1-2.9,0-3.8,0.3c-6,1.9-16.6,5.8-26.7,10.6C21.1,23.7,12.5,29.7,8.6,35.3
			c-7.9,12.4-1,21.1,4.6,28c5.3,6.6,8.8,11,3.4,18.1c-1.5,1.9-1.5,4.4,0,6c0.4,0.4,0.8,0.8,1.3,1c0.3,0.2,1.5,0.7,2.8,0.4
			c1.9-0.4,2.8-1.6,3.2-2.2c0.1-0.1,0.2-0.3,0.3-0.4c1.8-1.9,2.9-2.9,4.1-3.9c0.9-0.8,1.8-1.6,3.1-2.8c6.3-6.4,9-11.6,8.8-16.3
			c-0.3-4.6-3.2-7.7-6.1-10.7c-4.4-4.6-8.5-9-5.1-19.6c1.6-4.9,12.7-9.7,17.8-11.8c1.1-0.5,2.4-1,3-1.3c1.9-0.8,5-2.1,7.2-1.1
			c6.9,3.2-0.8,26.3-2.9,35c-2.7,11-10.6,36-18.1,51.4c-5.7,11.8-11.7,16.5-11.7,16.5c-0.2,0.5-0.9,0.4-1.1-0.1
			c-0.8-3.2-3.1-7.9-11.2-7.9c-6.4,0-11.8,4.3-12.1,10.2c-0.3,8.8,7.3,14.5,14.8,14.1C23.9,137.7,32.7,130,38.1,124.9z"/>
	</symbol>
	<symbol id="svg-logo" viewBox="6.9 10.5 612.8 142">
<path d="M397.4,228.5"/>
<g>
	<ellipse cx="156.5" cy="50.6" rx="10.7" ry="11"/>
	<path d="M617.5,102.5c-11,15.1-23.1,24.5-31.5,24.5c-7,0-7-6.1-7-8.4c0-3,1.6-13.3,6.1-31.5l0.5-2.1l2.1,0.5
		c4.7,0.9,8.2,0.9,12.1,0.9c4.2,0,7.5-4,7.5-9.1c0-1.6-0.7-3.5-1.6-4.7c-3.3,0.5-9.8,0.9-13.8,0.9l-4,0.2l1.9-3.5
		c8.6-17.5,10.7-21.7,10.7-26.3c0-4.9-5.6-7.2-13.1-7.2c-10.3,0-14.5,9.1-15.8,23.1c-0.7,6.5-0.9,9.1-0.9,12.4v2.1h-2.1
		c-5.8,0.2-8.4,4-8.4,7.9c0,1.2,0,1.6,4.2,2.1l2.8,0.2l-0.7,2.8c-1.9,6.1-3.3,11.2-4.4,15.6c-0.2,0-0.2,0-0.5-0.2
		c-9.1,13.8-21,24.5-26.8,24.5c-1.6,0-5.1-0.7-5.1-6.5c0-5.6,4.7-15.8,7.5-21.4c2.6-4.9,4.4-8.9,4.4-11.9c0-2.1,0-4.2-10.5-7.2
		c-2.6-0.7-6.3-2.1-8.4-3.3l-2.1-1.2l1.2-2.1c2.6-4.2,6.5-7,9.8-8.9c0-0.5,0.2-1.2,0.2-1.9c0-4.7-5.6-4.9-7.5-4.9
		c-8.4,0-25.2,16.1-25.2,26.3c0,2.1,0.7,4,1.9,5.4l0.9,1.2l-0.5,1.4c-2.8,6.5-5.6,10.7-9.6,16.1l-1.2,1.4
		c-7.5,8.9-14.2,14.2-18.4,14.2c-4.4,0-4-4.4-4.4-6.3c-0.7-3.7,1.4-14.5,8.2-37.3c1.4-4.2,1.9-8.4,1.9-10.7
		c0-4.9-5.4-11.4-15.6-11.4c-1.4,0-2.8,0.2-3.7,0.9l-0.5,8.4c-2.3,0-4.7,0.2-5.6,0.2c-7.2,0-17.5,7.5-24.7,17
		c-5.1,7-8.9,14.7-10.7,22.6c-9.6,11.7-19.6,18.6-27,18.6c-7,0-7-6.1-7-8.4c0-3,1.6-13.3,6.1-31.2c2.6,0.2,5.1,0.5,7.9,0.5
		c3.3,0,6.5-0.2,10-0.9c1.6-0.2,2.6-2.1,2.3-3.7l-0.2-1.9c-0.2-1.4-1.9-2.8-3.3-2.6c-5.4,0.2-10-0.2-14.7-0.5l0.9-4.2l1.9-3.5
		c8.6-17.5,9.6-21.9,10.7-26.3c1.4-5.1,1.6-7.7-9.1-7.7c-5.1,0-11.9,0.2-15.4,4.4c-3.5,4.2-3.7,12.1-4.4,19.1
		c-0.7,6.3-0.9,9.1-0.9,12.4v2.1c-0.7,0-1.4,0-2.1,0c-1.6-0.5-3-0.9-4.2-1.4c-5.1-2.6-10.3-7.5-13.5-9.3c-3-1.9-6.1-2.8-10.7-2.8
		c-3.7,0-7.2,0.5-10.3,1.6c-3,1.2-5.8,2.8-8.2,4.7c-2.3,2.1-4,4.4-5.4,7.2c-1.2,2.8-1.9,5.8-1.9,9.1c0,1.6,0.2,3.5,0.7,5.8
		c0.5,2.1,1.2,4.7,1.9,7c0.7,2.3,1.6,4.9,2.3,7.5c0.9,2.6,1.6,5.1,2.3,7.5c0.7,2.3,1.4,4.7,1.9,6.8c0.5,2.1,0.7,4,0.7,5.6
		c0,0.9-0.2,1.6-0.5,2.3c-0.2,0.7-0.7,1.4-1.2,1.9s-1.2,0.7-1.6,0.9c-0.5,0.2-1.2,0.2-1.6,0.2c-1.2,0-2.6-0.5-4-1.2
		c-1.4-0.7-2.6-1.6-3.7-2.8c-1.2-1.2-2.1-2.6-3-4.4c-0.9-1.6-1.6-3.5-1.9-5.6l-0.2-0.7l0.5-0.5c0.7-0.7,1.4-1.4,1.9-2.1
		c0.5-0.7,0.9-1.4,1.2-2.1c0.2-0.7,0.5-1.4,0.7-2.1s0.2-1.4,0.2-2.1c0-0.9-0.2-1.9-0.7-3s-1.2-2.3-2.1-3.5c-0.9-1.2-1.9-2.1-3-2.8
		c-1.2-0.7-2.1-0.9-3.3-0.9c-1.2,0-1.9,0.2-2.8,0.9s-1.9,1.6-2.6,3c-0.7,1.4-1.4,2.8-1.9,4.7c-0.5,1.9-0.9,3.7-1.4,5.6
		c-0.2,0.9-0.2,1.6-0.5,2.6v0.5l-0.2,0.2c-2.1,2.8-4.2,5.1-5.8,7c-1.9,2.1-3.7,3.7-5.4,4.7c-1.6,1.2-3.3,1.6-4.7,1.6
		c-1.4,0-2.8-0.7-3.7-1.9c-0.9-0.9-1.6-2.6-2.1-4.9c-0.5-2.1-1.6-4.7-1.9-7.9c-0.2-3.3-1.2-7.2-1.2-11.7v-0.9l1.6-0.5
		c2.8-1.4,5.8-2.8,7.9-3.7c2.1-1.2,4-2.1,5.4-3c1.4-0.9,2.6-1.6,3.5-2.3c0.7-0.7,1.4-1.4,1.9-2.1c0.5-0.7,0.7-1.4,0.7-2.3
		c0.2-0.9,0.2-2.1,0.2-3.3c0-1.4-0.2-2.8-0.7-4.4c-0.5-1.4-1.2-2.6-2.1-3.7c-0.9-1.2-2.1-1.9-3.3-2.6c-1.4-0.7-3-0.9-4.7-0.9
		c-0.9,0-1.9,0.2-3,0.7c-1.2,0.5-2.3,1.2-3.5,2.1c-1.4,0.9-2.8,2.3-4.2,4.2c-1.6,1.6-3.3,4-5.1,6.5c-1.2,1.4-2.1,3-3,4.9
		c-0.9,1.9-1.9,3.5-2.8,5.4l-0.2,0.5l-0.5,0.2l-11.4,4.7l-2.6,0.9l0.5-2.6c0.2-1.9,0.7-4,1.2-6.3c0.5-2.3,1.2-4.7,2.1-7
		c0.7-2.3,1.6-4.7,2.6-7c0.9-2.3,1.9-4.4,2.8-6.3c2.1-4,4-7.7,5.6-11c1.6-3.3,3-6.3,4.2-8.9c1.2-2.6,2.1-4.9,3-7
		c0.7-2.1,1.4-4,1.9-5.6c0.5-1.6,0.9-3,1.2-4.4c0.2-1.4,0.2-2.6,0.2-3.7c0.2-4.9,0.2-8.9-6.5-9.1c-6.5-0.2-18.9,3.5-21.4,7.5
		c-4.2,6.1-8.9,27.7-8.9,27.7c-1.4,6.5-2.8,14.2-4,22.6c-0.9,6.5-1.9,13.5-2.8,21.2v0.5l-0.2,0.2c-2.3,3.5-4.7,6.8-7.5,9.6
		c-2.8,3-5.6,5.6-8.4,7.7c-2.8,2.1-5.8,4-8.6,5.1c-3,1.2-5.8,1.9-8.4,1.9c-1.9,0-3.5-0.2-4.9-0.9c-1.4-0.7-2.6-1.6-3.5-2.8
		c-0.9-1.2-1.4-2.8-1.9-4.7c-0.5-1.9-0.5-4-0.5-6.3c0-4.4,0.2-8.4,0.9-11.9c0.7-3.5,1.4-6.5,2.6-9.1c0.9-2.6,2.1-4.7,3.3-6.1
		c1.4-1.6,2.8-2.6,4-2.6c0.7,0,1.6,0.2,2.8,1.4c0.7,0.9,1.2,2.1,1.2,3.7c0,1.2-0.2,2.8-0.5,4.7c-0.2,1.6-0.7,3.7-1.2,5.8
		c0.5,0.5,1.2,0.9,1.9,1.4c0.9,0.5,2.3,0.7,4,0.7c1.9,0,3.5-0.5,5.1-1.4c1.6-0.9,3.3-2.3,4.7-3.7c1.4-1.6,2.6-3.5,3.3-5.8
		c0.9-2.1,1.2-4.7,1.2-7.2c0-2.3-0.2-4.7-0.9-6.5s-1.6-3.3-2.8-4.7c-1.4-1.2-3-2.3-4.9-2.8c-2.1-0.7-4.4-0.9-7.2-0.9
		s-5.6,0.7-8.6,1.9c-3,1.4-5.8,3-8.6,5.4c-2.8,2.3-5.6,5.1-7.9,8.4c-2.6,3.3-4.7,6.8-6.5,10.5c-1.9,3.7-3.3,7.7-4.4,11.9
		c-0.5,1.6-0.7,3.5-1.2,5.1v0.5l-0.2,0.2c-0.5,0.7-0.9,1.2-1.4,1.6c-2.3,2.8-4.7,5.1-6.5,6.8c-1.9,1.9-3.5,3-4.9,4
		c-2.3,1.2-3.5,1.6-4.4,1.6c-1.2,0-2.1-0.2-2.8-0.9c-0.7-0.7-1.2-1.6-1.2-3c0-1.2,0.2-2.3,0.5-3.7c0.2-1.2,0.7-2.8,1.4-4.4
		c0.7-1.6,1.4-3.7,2.1-5.8c0.9-2.3,1.9-4.9,3-7.7l0,0l0,0c0.7-1.9,1.6-3.5,2.3-5.4c0.7-1.6,1.4-3.5,1.9-4.9c0.5-1.6,0.9-3,1.4-4.4
		c0.2-1.4,0.5-2.6,0.5-3.5c0-1.6,0-3-0.2-4.4c-0.2-1.2-0.5-2.1-0.9-2.8c-0.5-0.7-0.9-1.2-1.9-1.6c-0.9-0.5-2.3-0.7-4-0.7
		s-3.3,0.2-4.9,1.2c-6.5,3.7-10.7,15.6-15.6,25.6c-15.6,28.2-26.1,36.1-30.3,31.9c-4-4,0.2-8.9,1.9-15.4c2.3-9.6,3.5-17.2-0.9-24.7
		c5.4-2.6,8.2-5.6,11.2-8.4c0.9-0.9,1.9-1.9,3-2.8c9.6-8.2,13.8-17.5,18.6-28.4c3.5-7.7,7.5-16.3,14.5-26.8c0,0,3.3-4.9,1.2-8.9
		c-0.9-1.4-2.1-1.9-4.2-1.9c-0.2,0-0.5,0-0.7,0c-7,0-18.2,3-20.7,7.7c-1.4,2.6-2.6,6.3-4.2,11.7c-2.6,9.1-6.5,23.1-14,34.5
		c-6.5,10.3-14.7,16.5-24.5,19.3c7.2-17,12.4-33.3,13.8-44.3c0.5-4-0.2-10-4.2-15.1C85.2,20,80.1,17.5,74,17c-1.4,0-3,0-4,0.2
		c-6.3,1.9-17,6.1-27.5,11c-13.5,6.5-22.4,12.6-26.3,18.4c-8.2,12.8-0.9,21.7,4.7,28.9c5.4,6.8,9.1,11.4,3.5,18.6
		c-1.6,2.1-1.6,4.4,0,6.3c0.5,0.5,0.9,0.7,1.4,1.2c0.5,0.2,1.6,0.7,2.8,0.5c1.9-0.5,2.8-1.6,3.3-2.3c0-0.2,0.2-0.2,0.2-0.5
		c1.9-1.9,3-3,4.2-4c0.9-0.7,1.9-1.6,3.3-2.8c6.5-6.5,9.3-11.9,9.1-16.8c-0.2-4.7-3.3-7.9-6.3-11c-4.4-4.7-8.9-9.3-5.4-20
		c1.6-5.1,13.1-10,18.4-12.1c1.2-0.5,2.3-0.9,3-1.4c1.9-0.9,5.1-2.1,7.5-1.2c7,3.3-0.9,27-3,35.9c-2.8,11.4-11,37.1-18.6,52.9
		c-5.8,12.1-12.1,17-12.1,17c-0.2,0.5-0.9,0.5-1.2-0.2c-0.9-3.3-3.3-8.2-11.7-8.2c-6.5,0-12.1,4.4-12.4,10.5
		c-0.2,9.1,7.5,14.9,15.1,14.5c9.3-0.5,18.4-8.4,24-13.8c7.9-7.7,14.7-19.6,21-31.9l0.7-1.4c1.9-3.5,2.6-4.7,4.2-8.4
		c3.7,3.3,7.5,6.5,7.5,15.8c0,7-6.1,22.6,0.7,29.1c3.3,3,7.7,3.3,10.7,3.3c7.7,0,18.6-10.3,29.1-22.8c-0.2,0.9-0.2,1.9-0.5,2.8
		c-0.2,1.9-0.2,3.5-0.2,5.4c0,2.3,0.2,4.2,0.7,5.8c0.5,1.4,0.9,2.8,1.9,3.7c0.9,0.9,2.1,1.6,3.5,2.1c1.6,0.5,3.5,0.7,5.8,0.7
		c1.9,0,3.7-0.5,5.8-1.2c2.1-0.7,4.4-1.9,6.8-3.3c2.3-1.4,4.7-3,7-4.9c2.3-1.9,4.7-4,6.8-6.1c0.9-0.9,1.9-1.9,2.8-2.8l2.1-2.1
		l0.7,2.8c0,0.5,0.2,0.9,0.2,1.4c0.9,3.3,2.1,6.3,4,8.4c1.9,2.3,4,4,6.8,5.1s6.3,1.9,10.3,1.9c2.3,0,4.9-0.5,7.5-1.2
		c2.6-0.7,5.4-1.9,7.9-3.3c2.6-1.4,5.4-3,7.7-4.7c2.6-1.9,4.9-3.7,7.2-5.8c0.7-0.7,1.6-1.6,2.6-2.3l2.3-2.3l0.2,3.5
		c0,1.2,0.2,2.3,0.5,3.5c0.5,1.4,0.9,2.6,1.6,4c0.7,1.2,1.4,2.3,2.3,3.5c0.9,0.9,2.1,1.9,3.3,2.8c1.2,0.7,2.3,1.4,3.7,1.9
		c1.4,0.5,2.8,0.7,4.2,0.7c1.9,0,3.5-0.2,4.9-0.7c1.2-0.5,2.1-0.9,2.8-1.6c0-3.5,0-6.5,0.2-9.1c0-2.8,0.2-5.4,0.2-7.7
		c0-2.3,0.2-4.4,0.2-6.5c0.2-1.9,0.2-4,0.5-5.8V110l0.9-0.2l7.7-3l2.3-0.9l-0.2,2.6c-0.2,1.9-0.5,4-0.7,6.1
		c-0.2,2.1-0.2,4.2-0.2,6.3c0,4.7,0.2,8.6,0.7,11.9c0.5,3.3,1.4,5.8,2.6,7.7c1.2,1.9,2.3,3.3,4,4c1.6,0.9,3.7,1.2,6.3,1.2
		c1.9,0,3.7-0.5,5.8-1.2c2.1-0.9,4.4-2.1,6.5-3.5c2.3-1.6,4.7-3.3,6.8-5.4c2.3-2.1,4.4-4.2,6.5-6.5c0,0,0-0.2,0.2-0.2l0.2-0.2
		l1.9-2.1l0.7,2.8c0.2,0.7,0.5,1.4,0.7,2.1c1.2,3,2.8,5.6,4.7,7.7s4.4,3.5,7,4.7c2.8,0.9,5.6,1.6,8.9,1.6c2.6,0,4.9-0.2,7.5-0.7
		c2.6-0.5,4.9-1.2,7.2-2.1c2.3-0.9,4.4-2.1,6.5-3.5c2.1-1.4,3.7-3.3,5.4-5.1c1.4-2.1,2.6-4.2,3.5-7c0.9-2.6,1.4-5.6,1.4-8.9
		c0-1.9-0.2-4-0.7-6.1s-1.2-4.2-1.9-6.3c-0.7-2.1-1.4-4.2-2.3-6.1c-0.9-2.1-1.6-4-2.3-5.8c-0.7-1.9-1.4-3.7-1.9-5.4
		c-0.5-1.6-0.7-3.3-0.7-4.7c0-2.6,1.2-4,2.1-4.4c1.2-0.7,3-1.9,5.1-1.9c2.6,0,5.8,0.7,8.4,2.6c4.9,3.5,14.9,6.3,14.9,6.3l-0.7,2.1
		c-6.8,22.4-8.2,31.9-8.2,36.4c0,13.3,6.5,20,19.6,20c11.4,0,25.2-11.2,34-21.7c0.7,11.9,5.8,18.9,14.5,18.9c3.5,0,14.5,0,21-10.3
		c0.2,9.1,4,11,9.8,11c8.2,0,25.6-14.7,33.8-26.3c4.2-5.1,7.5-10.5,11.9-18.9l0.9-1.9l1.9,0.7c3.3,1.4,7,2.8,7,6.8
		c0,2.1-1.2,5.4-3,9.8c-2.3,6.3-5.4,14-5.4,20.5c0,8.2,4.4,11.9,13.8,11.9c6.3,0,16.5-6.1,26.6-15.8c3.5-3.5,6.8-7,9.3-10.5
		c-0.5,2.6-0.5,4.4-0.5,5.6c0,13.3,6.5,20,19.6,20c18.6,0,43.4-29.6,43.4-38.2C620.8,104.4,619.2,103,617.5,102.5z M457.4,80.4
		l-2.6,21.2l-2.3,17.7c-3.3,1.2-8.2,2.6-9.6,2.6c-4.7,0-6.8-2.8-6.8-9.3c0-14.5,9.1-29.1,17.7-34.7l4.4-2.8L457.4,80.4z"/>
</g>
</symbol>
</svg>
